<?xml version="1.0" encoding="utf-8"?>
<!-- Generator: Adobe Illustrator 19.0.0, SVG Export Plug-In . SVG Version: 6.00 Build 0)  -->
<svg version="1.1" id="Layer_1" xmlns="http://www.w3.org/2000/svg" xmlns:xlink="http://www.w3.org/1999/xlink" x="0px" y="0px"
	 viewBox="-377 246 204.4 70" style="enable-background:new -377 246 204.4 70;" xml:space="preserve">
<style type="text/css">
	.st0{fill:#FFFFFF;}
	.st1{clip-path:url(#SVGID_2_);fill:#FFFFFF;}
</style>
<g>
	<path class="st0" d="M-286.2,260.7c0,0.3,0,0.6-0.1,0.9s-0.2,0.6-0.4,0.9c-0.2,0.3-0.4,0.5-0.7,0.7c-0.3,0.2-0.6,0.3-1,0.4v0.1
		c0.4,0.1,0.7,0.2,1,0.3s0.6,0.3,0.9,0.6c0.2,0.3,0.4,0.6,0.6,0.9c0.1,0.4,0.2,0.8,0.2,1.3c0,0.7-0.1,1.2-0.4,1.7s-0.7,0.9-1.1,1.2
		c-0.5,0.3-1,0.5-1.6,0.7c-0.6,0.1-1.2,0.2-1.8,0.2c-0.2,0-0.5,0-0.8,0s-0.7,0-1,0c-0.4,0-0.7,0-1.1-0.1c-0.4,0-0.7-0.1-1-0.2v-12.5
		c0.2,0,0.5-0.1,0.8-0.1s0.6-0.1,1-0.1c0.3,0,0.7,0,1-0.1c0.4,0,0.7,0,1.1,0c0.6,0,1.2,0,1.7,0.1c0.6,0.1,1.1,0.3,1.5,0.5
		s0.8,0.6,1.1,1C-286.3,259.5-286.2,260-286.2,260.7z M-291.5,263c0.2,0,0.4,0,0.6,0s0.4,0,0.6-0.1c0.5-0.1,0.9-0.4,1.2-0.6
		c0.3-0.3,0.5-0.7,0.5-1.1c0-0.3-0.1-0.6-0.2-0.8c-0.1-0.2-0.3-0.4-0.5-0.5c-0.2-0.1-0.4-0.2-0.7-0.3c-0.3,0-0.5-0.1-0.8-0.1
		s-0.6,0-0.9,0s-0.5,0-0.6,0.1v3.4H-291.5z M-290.7,268.5c0.3,0,0.6,0,0.9-0.1c0.3-0.1,0.5-0.2,0.7-0.3c0.2-0.2,0.4-0.3,0.5-0.6
		c0.1-0.2,0.2-0.5,0.2-0.8c0-0.4-0.1-0.7-0.2-0.9c-0.2-0.2-0.4-0.4-0.6-0.5c-0.3-0.1-0.5-0.2-0.8-0.2s-0.6-0.1-0.9-0.1h-1.3v3.5
		c0.1,0,0.2,0,0.3,0.1c0.1,0,0.3,0,0.4,0s0.3,0,0.5,0C-291,268.5-290.8,268.5-290.7,268.5z"/>
	<path class="st0" d="M-284.1,257.7h2.5v4.6c0.1,0,0.3-0.1,0.6-0.1c0.3,0,0.6-0.1,0.9-0.1c0.6,0,1.2,0.1,1.7,0.2
		c0.6,0.1,1,0.3,1.4,0.6c0.4,0.3,0.7,0.7,1,1.3c0.2,0.5,0.4,1.2,0.4,2c0,1.5-0.4,2.6-1.3,3.3s-2.1,1.1-3.8,1.1c-0.2,0-0.4,0-0.7,0
		c-0.3,0-0.6,0-0.9,0s-0.6-0.1-1-0.1c-0.3,0-0.6-0.1-0.9-0.2L-284.1,257.7L-284.1,257.7z M-280.6,268.4c0.7,0,1.3-0.2,1.7-0.5
		c0.4-0.3,0.6-0.9,0.6-1.6c0-0.4-0.1-0.7-0.2-1s-0.3-0.5-0.5-0.6c-0.2-0.1-0.4-0.2-0.7-0.3c-0.3-0.1-0.6-0.1-0.9-0.1
		c-0.2,0-0.4,0-0.6,0s-0.4,0.1-0.5,0.1v3.8c0.1,0,0.3,0.1,0.5,0.1C-281,268.4-280.8,268.4-280.6,268.4z M-274.3,257.7h2.5v12.7h-2.5
		V257.7z"/>
	<path class="st0" d="M-261.2,269.9c-0.4,0.3-0.9,0.5-1.5,0.6c-0.6,0.1-1.2,0.2-1.8,0.2c-0.8,0-1.5-0.1-2.2-0.4
		c-0.7-0.2-1.3-0.6-1.8-1.1s-0.9-1.2-1.2-2.1c-0.3-0.8-0.5-1.9-0.5-3.1s0.2-2.3,0.5-3.1c0.3-0.8,0.8-1.5,1.3-2
		c0.6-0.5,1.2-0.9,1.8-1.1s1.4-0.3,2-0.3c0.7,0,1.3,0,1.8,0.1c0.5,0.1,0.9,0.2,1.2,0.3l-0.5,2.1c-0.3-0.1-0.6-0.2-1-0.3
		s-0.8-0.1-1.4-0.1c-1,0-1.8,0.4-2.4,1.1s-0.9,1.8-0.9,3.3c0,0.7,0.1,1.3,0.2,1.8s0.4,1,0.7,1.4c0.3,0.4,0.7,0.7,1.1,0.9
		c0.4,0.2,1,0.3,1.5,0.3s1-0.1,1.4-0.2c0.4-0.1,0.7-0.2,1-0.4L-261.2,269.9z"/>
	<path class="st0" d="M-259.8,270.5v-12.7h2.5v10.4h3v-10.5h2.5v10.5h3v-10.5h2.5v12.7L-259.8,270.5L-259.8,270.5z"/>
	<path class="st0" d="M-237.8,267.5h-3.9l-1,2.8h-2.5l4.6-12.8h1.8l4.6,12.8h-2.6L-237.8,267.5z M-241,265.5h2.7l-0.9-2.8l-0.4-2
		h-0.1l-0.4,2L-241,265.5z"/>
	<path class="st0" d="M-224.1,270.5h-2.5v-5l-1.3,0.3l-2.7,4.7h-2.9l2.6-4.2l1.1-0.8c-0.4-0.1-0.8-0.2-1.1-0.4
		c-0.3-0.2-0.6-0.5-0.9-0.8s-0.5-0.7-0.6-1.1c-0.1-0.4-0.2-0.9-0.2-1.5c0-0.8,0.1-1.4,0.4-1.9s0.6-0.9,1.1-1.3
		c0.5-0.3,1-0.6,1.7-0.7c0.7-0.1,1.4-0.2,2.1-0.2c0.2,0,0.4,0,0.7,0c0.3,0,0.5,0,0.8,0.1c0.3,0.1,0.6,0.1,0.8,0.1
		c0.3,0,0.5,0.1,0.7,0.1v12.6H-224.1z M-227.5,259.8c-0.3,0-0.6,0-0.9,0.1c-0.3,0.1-0.5,0.2-0.8,0.3c-0.2,0.1-0.4,0.3-0.5,0.6
		s-0.2,0.6-0.2,1c0,0.4,0.1,0.7,0.2,1s0.3,0.5,0.5,0.6c0.2,0.2,0.5,0.3,0.8,0.4c0.3,0.1,0.6,0.1,0.9,0.1h0.9V260
		c-0.1,0-0.3,0-0.4-0.1C-227.1,259.8-227.3,259.8-227.5,259.8z"/>
	<path class="st0" d="M-287.3,280.5l0.1-1.7h-0.1l-0.9,1.7l-4.7,7h-1.9v-12.7h2.5v6.9l-0.2,1.7h0.1l0.9-1.8l4.7-6.9h1.9v12.7h-2.5
		v-6.9H-287.3z"/>
	<path class="st0" d="M-275.6,282.3h-4.7v5.3h-2.5v-12.7h2.5v5.2h4.7v-5.2h2.5v12.7h-2.5V282.3z"/>
	<path class="st0" d="M-265.4,274.9h2.4v5.7l0.6-0.3l2.6-5.4h2.8l-3,5.6l-0.9,0.6l1,0.8l3.3,5.8h-3l-2.9-5.5h-0.7v5.5h-2.4V282
		l-0.7,0.3l-2.9,5.5h-2.9l3.3-5.6l1-0.7l-0.9-0.7l-3.1-5.8h2.9l2.6,5.4h0.7v-5.5H-265.4z"/>
	<path class="st0" d="M-255.3,274.9h7.5v2.2h-5.1v3h4.6v2.2h-4.6v3.1h5.1v2.2h-7.6v-12.7H-255.3z"/>
	<path class="st0" d="M-238.8,282.3h-4.7v5.3h-2.5v-12.7h2.5v5.2h4.7v-5.2h2.5v12.7h-2.5V282.3z"/>
	<path class="st0" d="M-234.2,274.9h7.5v2.2h-5.1v3h4.6v2.2h-4.6v3.1h5.1v2.2h-7.6v-12.7H-234.2z"/>
	<path class="st0" d="M-224.8,275c0.5-0.1,1.1-0.2,1.7-0.2c0.6-0.1,1.2-0.1,1.8-0.1c0.6,0,1.3,0.1,1.9,0.2c0.6,0.1,1.2,0.3,1.7,0.6
		s0.9,0.7,1.2,1.3c0.3,0.6,0.5,1.3,0.5,2.2c0,0.8-0.1,1.5-0.4,2c-0.3,0.6-0.6,1-1.1,1.4c-0.5,0.4-1,0.6-1.6,0.8s-1.2,0.2-1.8,0.2
		c-0.1,0-0.2,0-0.3,0s-0.3,0-0.4,0s-0.3,0-0.4,0s-0.2,0-0.3,0v4.4h-2.5V275z M-221,276.9c-0.2,0-0.5,0-0.7,0s-0.4,0-0.5,0.1v4.1
		c0,0,0.1,0,0.2,0s0.2,0,0.3,0c0.1,0,0.2,0,0.3,0s0.2,0,0.2,0c0.3,0,0.7,0,1-0.1c0.3-0.1,0.6-0.2,0.9-0.3c0.3-0.2,0.5-0.4,0.6-0.7
		c0.2-0.3,0.2-0.7,0.2-1.1c0-0.4-0.1-0.7-0.2-1c-0.1-0.3-0.3-0.5-0.6-0.6c-0.2-0.2-0.5-0.3-0.8-0.3
		C-220.4,276.9-220.7,276.9-221,276.9z"/>
	<path class="st0" d="M-207.3,282.3h-4.7v5.3h-2.5v-12.7h2.5v5.2h4.7v-5.2h2.5v12.7h-2.5V282.3z"/>
	<path class="st0" d="M-196.3,284.8h-3.9l-1,2.8h-2.5l4.6-12.8h1.8l4.6,12.8h-2.6L-196.3,284.8z M-199.5,282.8h2.7l-0.9-2.8l-0.4-2
		h-0.1l-0.4,2L-199.5,282.8z"/>
	<path class="st0" d="M-182.6,287.7h-2.5v-5l-1.3,0.3l-2.7,4.7h-2.9l2.6-4.2l1.1-0.8c-0.4-0.1-0.8-0.2-1.1-0.4s-0.6-0.5-0.9-0.8
		c-0.3-0.3-0.5-0.7-0.6-1.1c-0.1-0.4-0.2-0.9-0.2-1.5c0-0.8,0.1-1.4,0.4-1.9c0.3-0.5,0.6-0.9,1.1-1.3c0.5-0.4,1-0.6,1.7-0.7
		c0.7-0.1,1.4-0.2,2.1-0.2c0.2,0,0.4,0,0.7,0s0.5,0,0.8,0.1c0.3,0.1,0.6,0.1,0.8,0.1c0.3,0,0.5,0.1,0.7,0.1v12.6H-182.6z M-186,277
		c-0.3,0-0.6,0-0.9,0.1c-0.3,0.1-0.5,0.2-0.8,0.3c-0.2,0.1-0.4,0.3-0.5,0.6c-0.1,0.3-0.2,0.6-0.2,1c0,0.4,0.1,0.7,0.2,1
		c0.1,0.3,0.3,0.5,0.5,0.6c0.2,0.2,0.5,0.3,0.8,0.4c0.3,0.1,0.6,0.1,0.9,0.1h0.9v-3.9c-0.1,0-0.3,0-0.4-0.1
		C-185.6,277-185.8,277-186,277z"/>
	<path class="st0" d="M-294.7,304.9v-12.7h2.5v10.5h3v-10.5h2.5v10.5h3v-10.5h2.5v12.7H-294.7z"/>
	<path class="st0" d="M-276,299.4h-0.7v5.4h-2.5V292h2.5v5.6l0.6-0.3l3.5-5.4h2.8l-3.7,5.3l-1,0.7l1,0.7l4.2,6h-3.1L-276,299.4z"/>
	<path class="st0" d="M-269.2,298.5c0-2.1,0.5-3.8,1.4-4.9c0.9-1.1,2.3-1.7,4-1.7c0.9,0,1.7,0.2,2.4,0.5c0.7,0.3,1.2,0.8,1.7,1.3
		c0.4,0.6,0.8,1.3,1,2.1c0.2,0.8,0.3,1.7,0.3,2.7c0,2.1-0.5,3.8-1.4,4.9c-0.9,1.1-2.3,1.7-4,1.7c-0.9,0-1.7-0.2-2.4-0.5
		c-0.7-0.3-1.2-0.8-1.7-1.3c-0.4-0.6-0.8-1.3-1-2.1C-269.1,300.4-269.2,299.5-269.2,298.5z M-266.5,298.5c0,0.6,0.1,1.2,0.2,1.8
		c0.1,0.5,0.3,1,0.5,1.4c0.2,0.4,0.5,0.7,0.9,0.9s0.8,0.3,1.3,0.3c0.9,0,1.6-0.3,2.1-1s0.7-1.8,0.7-3.4c0-0.6-0.1-1.2-0.2-1.7
		s-0.3-1-0.5-1.4c-0.2-0.4-0.5-0.7-0.9-0.9s-0.8-0.3-1.3-0.3c-0.9,0-1.6,0.4-2.1,1.1C-266.3,295.9-266.5,297-266.5,298.5z"/>
	<path class="st0" d="M-250,294.4h-2.7c0,1.2-0.1,2.2-0.2,3.1c-0.1,0.9-0.1,1.8-0.2,2.6c-0.1,0.8-0.2,1.4-0.4,2
		c-0.2,0.6-0.4,1.1-0.7,1.5c-0.2,0.3-0.4,0.5-0.6,0.7s-0.4,0.3-0.7,0.4c-0.2,0.1-0.5,0.2-0.7,0.2s-0.4,0.1-0.6,0.1
		c-0.3,0-0.5,0-0.7-0.1c-0.2,0-0.4-0.1-0.6-0.2l0.3-2.1c0.1,0,0.1,0,0.2,0.1c0.1,0,0.1,0,0.2,0c0.2,0,0.4,0,0.6-0.1
		c0.2-0.1,0.3-0.3,0.5-0.5c0.2-0.3,0.3-0.7,0.5-1.2c0.1-0.5,0.3-1.2,0.4-2s0.2-1.8,0.2-2.9c0.1-1.1,0.1-2.4,0.1-3.9h7.5v12.7h-2.5
		v-10.4H-250z"/>
	<path class="st0" d="M-239,302h-3.9l-1,2.8h-2.5l4.6-12.8h1.8l4.6,12.8h-2.6L-239,302z M-242.2,300h2.7l-0.9-2.8l-0.4-2h-0.1
		l-0.4,2L-242.2,300z"/>
</g>
<g>
	<g>
		<g>
			<defs>
				<path id="SVGID_1_" d="M-336,249.3c-5.4,0-14.3,0.2-19.4,0.9c-7.1,0.9-10,4.6-10.7,11.3c-0.6,5.2-1,12.6-1,19.5
					c0,6.9,0.1,14.5,1,19.6c1.1,6.7,4.3,10.2,10.7,11.3c5.1,0.8,14.6,0.9,19.4,0.9c4.9,0,14.3,0,19.4-0.9c6.5-1,9.5-4.5,10.7-11.3
					c0.9-5.1,1-12.9,1-19.6c0-6.6-0.6-15.4-1-19.5c-0.7-7-3.7-10.3-10.7-11.3C-321.7,249.4-330.6,249.3-336,249.3z"/>
			</defs>
			<clipPath id="SVGID_2_">
				<use xlink:href="#SVGID_1_"  style="overflow:visible;"/>
			</clipPath>
			<path class="st1" d="M-323.9,262.5v27.2c0,0.8,0.9,1.2,1.7,1.2h17.7v-29.6h-17.7C-323,261.3-323.9,261.7-323.9,262.5z
				 M-357.3,289.4V272c0-0.5-0.3-1.3-0.8-1.3h-9.3v20.2h9.3C-357.6,290.9-357.3,289.9-357.3,289.4z M-367.4,249.3V266h10.2
				c2.9,0,4.6,2.2,4.6,5.1v19.1c0,2.9-1.7,5.4-4.6,5.4h-10.2v1.9h6.5v4.6h-6.5v11.4h62.9v-6.8h-11v-6.5h11.1v-2.8h-17.7
				c-4.1,0-7.2-3.5-7.2-7.7v-27.2c0-4.1,3.1-7.7,7.2-7.7h17.7v-5.6h-63V249.3z"/>
		</g>
	</g>
</g>
</svg>
